# xmcd
#
# Track frame offsets:
#  150
#  23115
#  33690
#  40330
#
# Disc length: 843 seconds
#
# Revision: 0
# Processed by: cddbd v1.4PL0 Copyright (c) Steve Scherf et al.
# Submitted via: AltoMP3_Maker 3.0
#
DISCID=2d034904
DTITLE=THE ALEFF - COMPLEX BLUE
DYEAR=1900
DGENRE=
TTITLE0=曲目 1
TTITLE1=曲目 2
TTITLE2=曲目 3
TTITLE3=曲目 4
EXTD=
EXTT0=
EXTT1=
EXTT2=
EXTT3=
PLAYORDER=
